<svg xmlns="http://www.w3.org/2000/svg" height="123.69" width="252" viewBox="0 0 252 123.68934"><g><path fill="#b0b7bb" d="m132.95 1.0605v36.349l-28.672-36.338h-50.283v39.158h8.7712v11.903l-11.038 0.0038c-6.164-13.607-15.828-12.387-15.828-12.387v12.382h-22.497c-1.144-0.812-2.54-1.354-4.1338-1.354-5.7309 0-8.3208 6.0791-8.3208 10.521 0 4.4417 2.756 10.518 8.4891 10.518 3.4712 6.53 9.4871 11.317 16.854 11.317 3.5556 0 6.8076-1.1239 9.6061-3.0178v2.765s9.6772 1.2215 15.832-12.415l11.027-0.0073v13.503h-8.8042v38.788h59.407v-37.836l29.748 37.836h50.14v-38.788h-9.3059l0.0256-13.62c58.916-0.66566 64.29-18.242 66.984-22.186-10.761 2.3322-30.746 3.4324-37.937 3.6549-10.233 0.31877-20.74 0.32096-29.025 0.31862 0.005-4.7275 0.004-8.9564 0.004-11.935 4.0924-0.08204 9.2547-0.19044 9.2547-0.19044l-0.0188-38.946h-60.298z"/><path d="m136.53 4.6497v32h9.284l0.022 19.066h-3.0178l-40.285-51.059h-44.959v31.984h8.7712v19.077h-17.11c-2.008-6.668-7.142-11.456-9.732-11.456v11.456h-27.408c-0.7852-0.84848-1.7553-1.3477-2.8053-1.3477-2.6158 0-4.7389 3.1029-4.7389 6.9328 0 3.8275 2.1232 6.9328 4.7389 6.9328 0.76645 0 1.4879-0.26632 2.1279-0.73978 2.747 7.1513 8.3856 12.056 14.895 12.056 5.3675 0 10.14-3.3349 13.192-8.5148v7.3026c2.5899 0 7.7264-4.7873 9.749-11.456l17.11-0.0073v20.673h-8.8042v31.612h52.231v-31.612h-8.2146l0.0769-20.695h2.0876l41.128 52.308h44.807v-31.612h-9.3095c0.007-2.6604 0.0249-11.279 0.0366-20.742h1.1719c21.901-0.39377 46.975-2.5625 61.11-14.019-14.544 3.054-43.86 2.9298-61.11 2.9298h-1.1573c0.009-8.7027 0.0131-16.422 0.004-19.04 3.5768-0.06563 9.2547-0.18312 9.2546-0.18312v-31.843h-53.129z"/><path d="m140.98 9.092v23.116h9.284l0.0366 40.161-4.38-5.552-3.3949 0.0037 10.449 13.247-0.0476-50.525h-9.2802v-17.78h38.908v17.766s-9.0102 0.1897-9.3243 0.02563c0.18047 1.118-0.004 65.109-0.004 65.109h9.3279v17.389h-34.243l-35.539-45.199h-3.3913l37.633 47.866h38.205v-22.721h-9.3206c0.0141-5.215 0.0905-53.999 0.0366-59.707l9.284-0.15016v-23.047h-44.241zm-78.955 0.010988v23.094h8.7749v59.799h-8.8079v22.724h43.343v-22.724h-8.0534l-0.02931-40.572 3.3767 4.2959h3.3913l-9.4047-11.965 0.11719 50.905h7.9362v17.392h-38.008v-17.392h8.8042v-65.133h-8.7749v-17.759h34.401l34.674 43.95h3.3986l-36.78-46.617h-38.359zm-19.831 39.904v5.2261c2.0485 0.53675 3.7922 1.9887 4.8891 3.9553-0.79457-4.1112-3.0234-7.297-4.8891-9.1814zm186.27 8.4269c-4.7931 0.37033-9.9855 0.61966-15.25 0.78374-11.333 0.35158-23.004 0.32229-31.65 0.32229h-1.1646l-0.004 2.82h9.284c20.18 0 34.828-2.4541 38.785-3.9261zm-219.01 0.634c-0.99615 0-1.8055 0.84042-1.8055 1.8788 0 1.0383 0.80937 1.8824 1.8055 1.8824 0.45706 0 0.87515-0.17579 1.1939-0.46878v-1.1207l1.8019 0.92656 1.8019-0.92656 1.8055 0.92656 1.8019-0.92656 1.8019 0.92656 1.8055-0.92656 1.8019 0.92656 1.8019-0.92656 1.8019 0.92656 1.8019-0.92656 1.8019 0.92656 1.8055-0.92656 1.8019 0.92656 1.8055-0.92656 1.8019 0.92656 1.8019-0.92656v-1.6993h-28.845c-0.32-0.293-0.738-0.472-1.1951-0.472zm40.425 0.47243c0.13594 0.90005 0.20876 1.8215 0.20876 2.7615v0.0586h16.264v-2.82h-16.473zm51.77 0v2.82h44.172v-2.82h-44.172z" fill="#fff"/><path fill="#b0b7bb" d="m14.147 66.886c3.0399 4.2542 7.357 6.9071 12.148 6.9071 4.7886 0 9.1079-2.6529 12.148-6.9071h-24.296z"/><path d="m143.64 11.762v17.78h9.2802l0.0476 50.525-10.452-13.247-29.748 0.02931 35.539 45.203h34.243v-17.392h-9.3279s0.18413-63.986 0.004-65.105c0.31408 0.16173 9.3243-0.02931 9.3243-0.02931v-17.766h-38.908zm-78.955 0.0073v17.759h8.7749v65.133h-8.8079v17.392h38.01v-17.392h-7.9399l-0.11354-50.905 9.4048 11.961h14.862 14.884l-34.674-43.949h-34.401z" fill="#c41230"/></g></svg>